<?xml version="1.0" standalone="no"?><!DOCTYPE svg PUBLIC "-//W3C//DTD SVG 1.1//EN" "http://www.w3.org/Graphics/SVG/1.1/DTD/svg11.dtd"><svg t="1631321054006" class="icon" viewBox="0 0 1024 1024" version="1.1" xmlns="http://www.w3.org/2000/svg" p-id="7258" xmlns:xlink="http://www.w3.org/1999/xlink" width="48" height="48"><defs><style type="text/css"></style></defs><path d="M359.68 50.7648c140.7488 0 254.848 114.1248 254.848 254.8736 0 5.5552-0.1792 11.1104-0.5376 16.6656-10.7776 164.3008-0.5888 283.5712 30.5408 357.8112 46.2848 110.336 165.6576 185.088 358.144 224.256-118.7328 60.3136-254.464 80.9984-407.1936 62.08-229.12-28.3904-371.1232 85.9648-520.704-177.0496C11.6992 678.4768-11.4688 539.2128 5.248 371.584A356.1728 356.1728 0 0 1 359.68 50.7648z" fill="#FFFFFF" p-id="7259"></path><path d="M359.68 50.7648c140.7488 0 254.848 114.1248 254.848 254.8736 0 5.5552-0.1792 11.1104-0.5376 16.6656-10.7776 164.3008-0.5888 283.5712 30.5408 357.8112 46.2848 110.336 165.6576 185.088 358.144 224.256-115.2512 58.5216-246.5024 79.744-393.7536 63.6416l-13.44-1.5616c-229.12-28.3904-371.1232 85.9648-520.704-177.0496C11.6992 678.4768-11.4688 539.2128 5.248 371.584A356.1728 356.1728 0 0 1 359.68 50.7648z m0 21.3504a334.848 334.848 0 0 0-333.184 301.568c-16.3328 163.5328 6.144 298.4192 66.816 405.1712a591.36 591.36 0 0 0 34.4064 53.9648c73.2928 101.4784 126.3616 118.8096 278.912 111.36l36.4288-1.9712c63.1296-3.2512 101.888-3.072 148.0448 2.2272l6.9888 0.8448c121.6512 15.0784 231.7568 4.3776 330.6496-31.9232l7.168-2.7136-9.8048-2.6624c-153.8048-42.88-253.824-113.664-298.4704-213.2224l-2.7648-6.4c-32.7168-77.952-43.136-200.1152-32.1792-367.4368a233.5232 233.5232 0 0 0-233.0368-248.8064z" fill="#000000" p-id="7260"></path><path d="M603.52 201.9328l101.9648-29.3888C675.456 221.2608 665.6 250.24 675.9168 259.4816c10.3168 9.216 46.4128 4.6848 108.2624-13.568-44.9536 48-65.4848 76.4672-61.6448 85.3504 3.84 8.8576 35.2256 13.0048 94.1056 12.416l-70.3488 78.08" fill="#F5A623" p-id="7261"></path><path d="M765.44 227.0976l37.632-11.1104-26.8032 28.6208c-22.1952 23.7056-38.3232 42.5216-48.2816 56.32a113.4592 113.4592 0 0 0-8.7296 13.696l-1.792 3.84 6.4768 1.536c1.408 0.3072 2.9952 0.64 4.7872 0.9472l5.888 0.9216 8.1408 0.896c13.056 1.2032 30.08 1.792 50.944 1.7152l31.4112-0.2816-86.6048 96.128-15.872-14.2848 54.3232-60.3136H775.68c-46.7968-0.64-70.9376-5.1968-77.8752-17.2544l-0.768-1.536c-4.9664-11.392 4.7616-29.5936 30.4384-59.9808l8.32-9.6512-1.8944 0.4864c-41.472 10.112-66.9952 11.264-79.232 2.3296l-1.5872-1.28c-13.056-11.6736-9.0368-33.9456 9.728-69.5552l4.1984-7.68-76.2624 21.9904-5.888-20.5056 128.4352-37.0176-14.464 23.4752-6.0672 10.0864c-22.016 37.376-29.2864 59.904-25.472 63.3088 5.632 5.0432 36.0448 1.6384 86.2208-12.416l11.904-3.4304z" fill="#000000" p-id="7262"></path><path d="M128 426.6752m0-42.6752a42.6752 42.6752 0 1 0 0 85.3504 42.6752 42.6752 0 1 0 0-85.3504Z" fill="#FFDDDD" p-id="7263"></path><path d="M469.3248 426.6752m0-42.6752a42.6752 42.6752 0 1 0 0 85.3504 42.6752 42.6752 0 1 0 0-85.3504Z" fill="#FFDDDD" p-id="7264"></path><path d="M181.3248 277.3248a32 32 0 1 1 0 64 32 32 0 0 1 0-64z m0 21.3504a10.6752 10.6752 0 1 0 0 21.3248 10.6752 10.6752 0 0 0 0-21.3248zM437.3248 277.3248a32 32 0 1 1 0 64 32 32 0 0 1 0-64z m0 21.3504a10.6752 10.6752 0 1 0 0 21.3248 10.6752 10.6752 0 0 0 0-21.3248z" fill="#000000" p-id="7265"></path><path d="M232.0128 426.6752c21.504-3.3536 31.488 13.7728 62.976 13.7728s83.456-38.9632 83.456-18.688-32.1536 83.328-83.456 78.08c-51.2768-5.248-84.48-69.8368-62.976-73.1648z" fill="#FFA7A7" p-id="7266"></path><path d="M293.888 510.464c-26.4448-2.7136-50.7648-19.3536-66.432-41.8048-6.8096-9.7792-11.3152-19.8656-12.4672-28.4672-1.6128-12.032 3.5072-22.2208 15.3856-24.064 8.704-1.3568 16.3072-0.256 25.0112 2.9184l3.584 1.3824 7.3472 3.072c10.624 4.4288 18.1248 6.2976 28.672 6.2976 6.4 0 15.0016-2.176 26.1888-6.4256l5.7088-2.2528 22.3232-9.472 6.4256-2.5088c2.944-1.1008 5.5296-1.92 7.9104-2.56 13.9008-3.6608 25.6 0.2048 25.6 15.1808 0 37.888-45.824 93.7728-95.232 88.704z m5.7088-21.0176c30.5152 0.384 61.1328-33.7664 67.1232-59.264l0.512-2.4576-2.1248 0.6912-2.304 0.8192-7.8592 3.1488-13.1328 5.632c-5.0176 2.1248-9.088 3.7888-13.056 5.2992-13.4144 5.12-24.1664 7.808-33.7664 7.808-11.8272 0-20.9152-1.8432-31.4624-5.7856l-14.0544-5.7344a74.0352 74.0352 0 0 0-1.3824-0.512l-3.1744-1.0496a25.5488 25.5488 0 0 0-8.448-1.1008l-0.4352 0.0256 0.1024 0.384c0.6656 4.864 3.7888 11.904 8.8064 19.0976 12.3904 17.7152 31.4368 30.7712 51.1488 32.7936l3.5072 0.2048z" fill="#000000" p-id="7267"></path></svg>